HIERARCHY
ROOT SpineBase
{
  OFFSET 0.000000 0.000000 0.000000
  CHANNELS 6 Xposition Yposition Zposition Zrotation Xrotation Yrotation
  JOINT SpineMid
  {
    OFFSET 0.000000 32.048657 0.000000
    CHANNELS 3 Zrotation Xrotation Yrotation
    JOINT SpineShoulder
    {
      OFFSET -0.028406 23.815857 -0.688774
      CHANNELS 3 Zrotation Xrotation Yrotation
      JOINT Neck
      {
        OFFSET -0.061398 7.872501 -0.482004
        CHANNELS 3 Zrotation Xrotation Yrotation
        JOINT Head
        {
          OFFSET -5.118903 12.541520 -0.009937
          CHANNELS 3 Zrotation Xrotation Yrotation
          End Site
          {
            OFFSET 0 0 0
          }
        }
      }
      JOINT ShoulderLeft
      {
        OFFSET -16.066382 -5.266600 8.427433
        CHANNELS 3 Zrotation Xrotation Yrotation
        JOINT ElbowLeft
        {
          OFFSET -2.522592 -28.139958 2.208580
          CHANNELS 3 Zrotation Xrotation Yrotation
          JOINT WristLeft
          {
            OFFSET 1.440574 -23.361876 -3.479497
            CHANNELS 3 Zrotation Xrotation Yrotation
            JOINT HandLeft
            {
              OFFSET 0.541756 -7.121606 -0.778702
              CHANNELS 3 Zrotation Xrotation Yrotation
              JOINT HandTipLeft
              {
                OFFSET 1.363426 -7.172163 -0.176807
                CHANNELS 3 Zrotation Xrotation Yrotation
                End Site
                {
                  OFFSET 0 0 0
                }
              }
              JOINT ThumbLeft
              {
                OFFSET -2.073657 -0.967812 -2.492465
                CHANNELS 3 Zrotation Xrotation Yrotation
                End Site
                {
                  OFFSET 0 0 0
                }
              }
            }
          }
        }
      }
      JOINT ShoulderRight
      {
        OFFSET 12.214241 -4.190873 -8.846491
        CHANNELS 3 Zrotation Xrotation Yrotation
        JOINT ElbowRight
        {
          OFFSET 8.820169 -27.269601 -2.901633
          CHANNELS 3 Zrotation Xrotation Yrotation
          JOINT WristRight
          {
            OFFSET 1.119084 -21.032384 -5.972847
            CHANNELS 3 Zrotation Xrotation Yrotation
            JOINT HandRight
            {
              OFFSET -1.106327 -6.719507 -1.406365
              CHANNELS 3 Zrotation Xrotation Yrotation
              JOINT HandTipRight
              {
                OFFSET -0.377909 -6.901237 -0.367047
                CHANNELS 3 Zrotation Xrotation Yrotation
                End Site
                {
                  OFFSET 0 0 0
                }
              }
              JOINT ThumbRight
              {
                OFFSET -3.479956 -0.283707 -0.132442
                CHANNELS 3 Zrotation Xrotation Yrotation
                End Site
                {
                  OFFSET 0 0 0
                }
              }
            }
          }
        }
      }
    }
  }
  JOINT HipLeft
  {
    OFFSET -5.939082 -0.352309 0.115348
    CHANNELS 3 Zrotation Xrotation Yrotation
    JOINT KneeLeft
    {
      OFFSET 3.060229 -36.234279 7.803359
      CHANNELS 3 Zrotation Xrotation Yrotation
      JOINT AnkleLeft
      {
        OFFSET 8.608550 -35.409301 12.178087
        CHANNELS 3 Zrotation Xrotation Yrotation
        JOINT FootLeft
        {
          OFFSET -2.545032 -8.187952 -4.005655
          CHANNELS 3 Zrotation Xrotation Yrotation
          End Site
          {
            OFFSET 0 0 0
          }
        }
      }
    }
  }
  JOINT HipRight
  {
    OFFSET 6.461583 1.784764 -6.497866
    CHANNELS 3 Zrotation Xrotation Yrotation
    JOINT KneeRight
    {
      OFFSET 9.302803 -34.725949 -0.052746
      CHANNELS 3 Zrotation Xrotation Yrotation
      JOINT AnkleRight
      {
        OFFSET 7.747846 -34.794811 9.739088
        CHANNELS 3 Zrotation Xrotation Yrotation
        JOINT FootRight
        {
          OFFSET -0.828103 -8.353120 -4.225368
          CHANNELS 3 Zrotation Xrotation Yrotation
          End Site
          {
            OFFSET 0 0 0
          }
        }
      }
    }
  }
}
MOTION
Frames: 11
Frame Time: 0.033333
-28.496672 85.480618 335.182492 0.497410 1.466047 40.298588 0.285893 0.032103 -40.281320 -0.553469 0.190932 -0.007218 7.533389 6.809351 3.110671 0.000000 0.000000 0.000000 -2.057649 -2.497020 -0.191757 6.151288 1.402515 -0.575317 -15.052984 -10.454486 -0.058097 -3.192389 15.825282 3.344497 0.000000 0.000000 0.000000 0.000000 0.000000 0.000000 -63.984107 48.857158 60.685456 -14.684598 13.553224 -13.827642 -14.655439 6.696856 -24.829394 0.263207 10.613958 1.177072 0.000000 0.000000 0.000000 0.000000 0.000000 0.000000 1.589766 3.371580 -40.050754 0.787882 -4.088406 0.072455 -2.706875 1.246721 0.117842 0.000000 0.000000 0.000000 0.080209 0.065845 -39.886375 -0.583531 -0.717776 -0.255818 1.115308 -1.201036 -0.652725 0.000000 0.000000 0.000000
-28.194074 85.060607 334.919343 1.017137 1.954215 40.059550 -0.221252 0.033515 -40.052962 -0.410865 0.324991 0.008450 7.919307 8.762159 3.831977 0.000000 0.000000 0.000000 -2.398786 -2.747075 -0.237517 6.900013 0.208560 -0.697908 -16.550513 -10.809611 0.142043 -1.109739 16.411892 2.890845 0.000000 0.000000 0.000000 0.000000 0.000000 0.000000 -76.105405 44.487079 67.498891 -7.810390 11.304500 -11.685893 -15.095352 7.436831 -26.594117 -1.157748 10.600023 0.473908 0.000000 0.000000 0.000000 0.000000 0.000000 0.000000 0.593586 3.178757 -39.864627 0.931327 -3.728479 0.151776 -3.394301 1.199790 0.399121 0.000000 0.000000 0.000000 -1.585431 0.075786 -39.822692 0.151788 0.053582 -0.057559 1.039261 -0.819531 -0.693417 0.000000 0.000000 0.000000
-28.034265 84.381191 334.663274 1.245886 2.224482 39.143247 -0.270655 0.031765 -39.138372 -0.370871 0.396478 0.017995 8.041754 10.980627 4.656178 0.000000 0.000000 0.000000 -2.706527 -3.019023 -0.283390 6.912084 -1.983913 -0.718196 -15.921963 -9.308706 0.668574 1.429833 16.071007 2.005892 0.000000 0.000000 0.000000 0.000000 0.000000 0.000000 -85.707038 40.444927 72.826841 -2.384170 8.397180 -10.369713 -13.856795 8.505852 -26.699205 -4.334591 11.534920 -0.192259 0.000000 0.000000 0.000000 0.000000 0.000000 0.000000 -0.267866 2.666329 -39.008248 1.056743 -3.038265 0.248089 -4.024420 1.593667 0.529183 0.000000 0.000000 0.000000 -2.134976 -0.022807 -38.954110 0.324820 0.334350 0.018343 0.850946 -0.728905 -0.674024 0.000000 0.000000 0.000000
-27.884394 83.537136 334.389195 1.457909 2.464332 37.182843 -0.291360 0.019858 -37.179507 -0.377047 0.394369 0.023990 8.041027 13.459029 5.533562 0.000000 0.000000 0.000000 -2.939719 -3.211899 -0.318027 6.679026 -3.976445 -0.716662 -13.285130 -8.680224 0.805535 2.074691 16.288483 1.564514 0.000000 0.000000 0.000000 0.000000 0.000000 0.000000 -92.213199 37.532647 76.594542 0.966755 5.256255 -10.278004 -13.674014 9.485323 -26.552458 -7.453015 14.107761 0.861090 0.000000 0.000000 0.000000 0.000000 0.000000 0.000000 -1.336485 1.856696 -37.140154 1.218106 -2.015399 0.376125 -5.021518 2.855337 0.596909 0.000000 0.000000 0.000000 -2.383593 -0.038726 -36.969994 0.403746 0.300453 0.021714 0.008933 -1.294253 -0.284700 0.000000 0.000000 0.000000
-27.802849 83.160271 334.228940 1.643345 2.612483 34.798263 -0.299415 0.008196 -34.795867 -0.431104 0.343180 0.025390 7.708832 15.877949 6.385316 0.000000 0.000000 0.000000 -3.080363 -3.290177 -0.336500 6.217562 -6.177448 -0.714905 -10.915742 -6.980278 0.990505 3.774593 16.094407 0.855866 0.000000 0.000000 0.000000 0.000000 0.000000 0.000000 -96.902622 34.934033 78.970937 3.517090 2.651281 -10.090307 -13.703112 11.655410 -25.646330 -12.633171 16.599363 0.521272 0.000000 0.000000 0.000000 0.000000 0.000000 0.000000 -2.231252 1.111982 -34.852662 1.354116 -1.039688 0.496529 -4.986303 3.484051 0.329403 0.000000 0.000000 0.000000 -2.381722 0.248631 -34.470631 0.516958 -0.120710 -0.067752 -0.070425 -1.338450 -0.317588 0.000000 0.000000 0.000000
-27.790197 82.830959 334.123040 1.778843 2.717949 33.475404 -0.231394 0.025301 -33.472230 -0.497328 0.303813 0.025802 6.799073 17.979429 7.251413 0.000000 0.000000 0.000000 -3.195140 -3.412901 -0.353013 6.043655 -8.379232 -0.760155 -8.023055 -5.250442 0.977123 2.255884 16.542830 1.143242 0.000000 0.000000 0.000000 0.000000 0.000000 0.000000 -99.638663 33.542359 80.548253 4.329426 1.114358 -10.540261 -12.164984 11.411764 -24.921746 -18.637170 20.035625 1.254643 0.000000 0.000000 0.000000 0.000000 0.000000 0.000000 -2.779003 0.560334 -33.593388 1.401404 -0.345455 0.573712 -2.411933 2.092598 -0.629331 0.000000 0.000000 0.000000 -2.282973 0.332278 -33.079776 0.490990 -0.434962 -0.114271 0.206632 -2.112193 -0.458139 0.000000 0.000000 0.000000
-27.870944 82.723101 334.110994 1.823677 2.745262 32.698653 -0.056295 0.102729 -32.692544 -0.581469 0.210207 0.023866 5.424944 19.509874 8.033026 0.000000 0.000000 0.000000 -3.238139 -3.524158 -0.359771 5.974079 -10.290421 -0.817057 -6.072088 -2.886758 0.990879 -0.188252 16.441861 1.755834 0.000000 0.000000 0.000000 0.000000 0.000000 0.000000 -101.086321 34.067508 83.174813 2.017065 -0.829261 -14.105749 -11.237673 11.656374 -23.491314 -27.825998 21.606649 -4.354685 0.000000 0.000000 0.000000 0.000000 0.000000 0.000000 -2.985416 0.201253 -32.839108 1.350770 0.124481 0.614761 -0.792831 0.362091 -0.976922 0.000000 0.000000 0.000000 -1.939623 0.402834 -32.223223 0.350519 -0.824743 -0.172842 -0.003981 -3.148303 -0.338131 0.000000 0.000000 0.000000
-27.961798 82.630395 334.068021 1.877448 2.829620 32.014440 0.052816 0.135367 -32.006810 -0.589672 0.151361 0.027579 5.270993 20.356701 8.379727 0.000000 0.000000 0.000000 -3.361648 -3.638005 -0.376596 6.270243 -11.871029 -0.878785 -5.343047 -0.920979 1.095879 -0.783020 15.848294 1.779576 0.000000 0.000000 0.000000 0.000000 0.000000 0.000000 -102.491948 34.041988 84.929116 0.601740 -2.379207 -16.594986 -9.764822 12.106102 -21.833233 -33.382130 21.496773 -11.506531 0.000000 0.000000 0.000000 0.000000 0.000000 0.000000 -3.143106 -0.197945 -32.162619 1.207148 0.490834 0.614423 0.164838 -0.397601 -1.213765 0.000000 0.000000 0.000000 -1.735152 0.364199 -31.492874 0.236743 -1.081880 -0.201633 -0.146227 -3.474560 -0.312342 0.000000 0.000000 0.000000
-28.059187 82.551834 334.023688 1.911029 2.915540 31.366713 0.129016 0.159210 -31.358434 -0.553380 0.122712 0.033813 4.938828 20.897718 8.652582 0.000000 0.000000 0.000000 -3.486144 -3.755434 -0.394082 6.792057 -12.908548 -0.928301 -5.591656 0.338345 1.312841 -1.085707 15.683568 1.839466 0.000000 0.000000 0.000000 0.000000 0.000000 0.000000 -103.293606 34.318014 86.242036 -1.417938 -2.996294 -19.005585 -7.963163 12.072975 -20.432067 -31.963167 21.459634 -9.540763 0.000000 0.000000 0.000000 0.000000 0.000000 0.000000 -3.231834 -0.581033 -31.513348 1.024644 0.823041 0.604296 0.833207 -1.268787 -1.261731 0.000000 0.000000 0.000000 -1.533484 0.273666 -30.810899 0.106091 -1.261983 -0.214728 -0.345209 -3.409605 -0.299436 0.000000 0.000000 0.000000
-28.151472 82.487664 333.978733 1.928785 3.002001 30.719806 0.166354 0.169702 -30.711731 -0.535159 0.127428 0.037073 4.733273 20.796829 8.689274 0.000000 0.000000 0.000000 -3.551323 -3.874305 -0.406572 7.577860 -13.239166 -0.965604 -6.641853 -0.277156 1.552801 -2.108015 18.127473 2.583738 0.000000 0.000000 0.000000 0.000000 0.000000 0.000000 -102.606318 33.497970 83.906889 -0.273566 -1.071679 -16.189620 -5.460027 10.401046 -20.705420 -32.917109 21.714274 -10.428055 0.000000 0.000000 0.000000 0.000000 0.000000 0.000000 -3.192674 -1.593196 -30.814755 0.415379 1.633726 0.536301 -0.430825 -1.629722 -0.548351 0.000000 0.000000 0.000000 -1.397460 0.213722 -30.132938 0.022822 -1.415129 -0.232127 -0.295992 -3.739315 -0.338677 0.000000 0.000000 0.000000
-28.200923 82.435229 333.919614 1.957572 3.106406 30.185392 0.147214 0.167142 -30.179414 -0.517650 0.143756 0.039221 4.421913 20.845870 8.802561 0.000000 0.000000 0.000000 -3.584799 -3.982711 -0.415726 8.106107 -13.882896 -0.992558 -8.005803 0.653895 2.010665 -1.936751 17.291592 2.445876 0.000000 0.000000 0.000000 0.000000 0.000000 0.000000 -102.461731 32.968952 82.828604 0.129998 -0.697007 -15.275993 -4.324991 10.237734 -20.247130 -30.964269 18.763945 -14.357857 0.000000 0.000000 0.000000 0.000000 0.000000 0.000000 -3.255205 -1.698479 -30.286742 0.383481 1.690051 0.539433 -0.399546 -1.686326 -0.550970 0.000000 0.000000 0.000000 -1.425615 0.128874 -29.593805 0.039253 -1.477257 -0.229026 -0.170119 -4.126559 -0.393239 0.000000 0.000000 0.000000
